<svg width="53" height="53" viewBox="0 0 53 53" fill="none" xmlns="http://www.w3.org/2000/svg">
<g clip-path="url(#clip0)">
<path d="M28.404 3.41299C27.428 2.86099 26.273 2.87899 25.314 3.45699C25.268 3.48399 25.224 3.51599 25.184 3.54999L11.634 15.013H1C0.447 15.013 0 15.46 0 16.013V35.013C0 35.279 0.105 35.533 0.293 35.72C0.481 35.907 0.734 36.013 1 36.013L11.61 36.008L25.153 48.448C25.203 48.494 25.257 48.534 25.314 48.568C25.806 48.865 26.351 49.014 26.896 49.014C27.413 49.013 27.929 48.88 28.404 48.612C29.403 48.048 30 47.018 30 45.857V6.16899C30 5.00799 29.403 3.97799 28.404 3.41299ZM28 45.857C28 46.288 27.783 46.667 27.421 46.872C27.266 46.959 26.873 47.127 26.421 46.898L13 34.569V30.013C13 29.46 12.553 29.013 12 29.013C11.447 29.013 11 29.46 11 30.013V34.009L2 34.013V17.013H11V21.013C11 21.566 11.447 22.013 12 22.013C12.553 22.013 13 21.566 13 21.013V16.477L26.405 5.13699C26.866 4.89499 27.265 5.06699 27.421 5.15499C27.783 5.35999 28 5.73899 28 6.16899V45.857Z" fill="black"/>
<path d="M38.797 7.06596C38.274 6.88896 37.706 7.16896 37.528 7.69196C37.351 8.21396 37.631 8.78296 38.154 8.96096C45.255 11.372 50.026 18.024 50.026 25.514C50.026 32.997 45.264 39.65 38.177 42.068C37.655 42.246 37.375 42.814 37.554 43.338C37.696 43.753 38.084 44.015 38.5 44.015C38.607 44.015 38.716 43.998 38.823 43.961C46.719 41.268 52.025 33.855 52.025 25.515C52.026 17.166 46.71 9.75296 38.797 7.06596Z" fill="black"/>
<path d="M43.026 25.513C43.026 19.541 39.017 14.211 33.277 12.551C32.744 12.4 32.193 12.703 32.039 13.235C31.886 13.765 32.191 14.32 32.723 14.473C37.612 15.886 41.027 20.426 41.027 25.513C41.027 30.6 37.612 35.14 32.723 36.553C32.192 36.706 31.886 37.261 32.039 37.791C32.166 38.229 32.565 38.514 33 38.514C33.092 38.514 33.185 38.501 33.277 38.475C39.018 36.815 43.026 31.485 43.026 25.513Z" fill="black"/>
</g>
<defs>
<clipPath id="clip0">
<rect width="52.026" height="52.026" fill="white"/>
</clipPath>
</defs>
</svg>
